<mxfile host="app.diagrams.net" agent="Mozilla/5.0 (X11; Ubuntu; Linux x86_64; rv:132.0) Gecko/20100101 Firefox/132.0" version="24.9.1">
  <diagram id="C5RBs43oDa-KdzZeNtuy" name="1. Login and Registration">
    <mxGraphModel dx="1224" dy="545" grid="1" gridSize="10" guides="1" tooltips="1" connect="1" arrows="1" fold="1" page="1" pageScale="1" pageWidth="827" pageHeight="1169" math="0" shadow="0">
      <root>
        <mxCell id="WIyWlLk6GJQsqaUBKTNV-0" />
        <mxCell id="WIyWlLk6GJQsqaUBKTNV-1" parent="WIyWlLk6GJQsqaUBKTNV-0" />
        <mxCell id="xFGzQamaevI_TETjZyQw-0" value="&amp;lt;&amp;lt;control&amp;gt;&amp;gt;&lt;br&gt;AuthenticationControl" style="swimlane;fontStyle=1;align=center;verticalAlign=top;childLayout=stackLayout;horizontal=1;startSize=50;horizontalStack=0;resizeParent=1;resizeParentMax=0;resizeLast=0;collapsible=1;marginBottom=0;whiteSpace=wrap;html=1;labelBackgroundColor=none;fillColor=#FAE5C7;strokeColor=#0F8B8D;fontColor=#143642;" vertex="1" parent="WIyWlLk6GJQsqaUBKTNV-1">
          <mxGeometry x="523" y="320" width="240" height="180" as="geometry" />
        </mxCell>
        <mxCell id="xFGzQamaevI_TETjZyQw-1" value="&lt;br&gt;" style="text;strokeColor=none;fillColor=none;align=left;verticalAlign=top;spacingLeft=4;spacingRight=4;overflow=hidden;rotatable=0;points=[[0,0.5],[1,0.5]];portConstraint=eastwest;whiteSpace=wrap;html=1;labelBackgroundColor=none;fontColor=#143642;" vertex="1" parent="xFGzQamaevI_TETjZyQw-0">
          <mxGeometry y="50" width="240" height="22" as="geometry" />
        </mxCell>
        <mxCell id="xFGzQamaevI_TETjZyQw-2" value="" style="line;strokeWidth=1;fillColor=none;align=left;verticalAlign=middle;spacingTop=-1;spacingLeft=3;spacingRight=3;rotatable=0;labelPosition=right;points=[];portConstraint=eastwest;strokeColor=#0F8B8D;labelBackgroundColor=none;fontColor=#143642;" vertex="1" parent="xFGzQamaevI_TETjZyQw-0">
          <mxGeometry y="72" width="240" height="8" as="geometry" />
        </mxCell>
        <mxCell id="xFGzQamaevI_TETjZyQw-3" value="&lt;font style=&quot;&quot;&gt;&lt;font style=&quot;font-size: 9px;&quot;&gt;+ login(email, password)&lt;br&gt;+ register(email, password,&amp;nbsp;phoneNo, userData&amp;nbsp;)&lt;br&gt;+ forgotPass(email, phoneNo)&amp;nbsp;&lt;/font&gt;&lt;br&gt;&lt;/font&gt;&lt;div&gt;&lt;span style=&quot;font-size: 9px;&quot;&gt;+ validPhoneNo()&lt;/span&gt;&lt;/div&gt;&lt;div&gt;&lt;span style=&quot;font-size: 9px;&quot;&gt;+ validPass()&lt;/span&gt;&lt;span style=&quot;font-size: 9px;&quot;&gt;&lt;/span&gt;&lt;/div&gt;&lt;div&gt;&lt;span style=&quot;font-size: 9px;&quot;&gt;+ validEmail()&lt;/span&gt;&lt;span style=&quot;font-size: 9px;&quot;&gt;&lt;/span&gt;&lt;/div&gt;" style="text;strokeColor=none;fillColor=none;align=left;verticalAlign=top;spacingLeft=4;spacingRight=4;overflow=hidden;rotatable=0;points=[[0,0.5],[1,0.5]];portConstraint=eastwest;whiteSpace=wrap;html=1;labelBackgroundColor=none;fontColor=#143642;" vertex="1" parent="xFGzQamaevI_TETjZyQw-0">
          <mxGeometry y="80" width="240" height="100" as="geometry" />
        </mxCell>
        <mxCell id="xFGzQamaevI_TETjZyQw-4" value="&amp;lt;&amp;lt;view&amp;gt;&amp;gt;&lt;br&gt;LoginUI" style="swimlane;fontStyle=1;align=center;verticalAlign=top;childLayout=stackLayout;horizontal=1;startSize=50;horizontalStack=0;resizeParent=1;resizeParentMax=0;resizeLast=0;collapsible=1;marginBottom=0;whiteSpace=wrap;html=1;labelBackgroundColor=none;fillColor=#FAE5C7;strokeColor=#0F8B8D;fontColor=#143642;" vertex="1" parent="WIyWlLk6GJQsqaUBKTNV-1">
          <mxGeometry x="300" y="340" width="170" height="140" as="geometry" />
        </mxCell>
        <mxCell id="xFGzQamaevI_TETjZyQw-5" value="&lt;br&gt;" style="text;strokeColor=none;fillColor=none;align=left;verticalAlign=top;spacingLeft=4;spacingRight=4;overflow=hidden;rotatable=0;points=[[0,0.5],[1,0.5]];portConstraint=eastwest;whiteSpace=wrap;html=1;labelBackgroundColor=none;fontColor=#143642;" vertex="1" parent="xFGzQamaevI_TETjZyQw-4">
          <mxGeometry y="50" width="170" height="20" as="geometry" />
        </mxCell>
        <mxCell id="xFGzQamaevI_TETjZyQw-6" value="" style="line;strokeWidth=1;fillColor=none;align=left;verticalAlign=middle;spacingTop=-1;spacingLeft=3;spacingRight=3;rotatable=0;labelPosition=right;points=[];portConstraint=eastwest;strokeColor=#0F8B8D;labelBackgroundColor=none;fontColor=#143642;" vertex="1" parent="xFGzQamaevI_TETjZyQw-4">
          <mxGeometry y="70" width="170" height="8" as="geometry" />
        </mxCell>
        <mxCell id="xFGzQamaevI_TETjZyQw-7" value="&lt;font style=&quot;font-size: 9px;&quot;&gt;+ inputUserInfo(email, password)&lt;br&gt;+ loginButton()&lt;br&gt;+ forgotPass(email, phoneNo)&lt;/font&gt;" style="text;strokeColor=none;fillColor=none;align=left;verticalAlign=top;spacingLeft=4;spacingRight=4;overflow=hidden;rotatable=0;points=[[0,0.5],[1,0.5]];portConstraint=eastwest;whiteSpace=wrap;html=1;labelBackgroundColor=none;fontColor=#143642;" vertex="1" parent="xFGzQamaevI_TETjZyQw-4">
          <mxGeometry y="78" width="170" height="62" as="geometry" />
        </mxCell>
        <mxCell id="xFGzQamaevI_TETjZyQw-8" value="&amp;lt;&amp;lt;model&amp;gt;&amp;gt;&lt;br&gt;User" style="swimlane;fontStyle=1;align=center;verticalAlign=top;childLayout=stackLayout;horizontal=1;startSize=40;horizontalStack=0;resizeParent=1;resizeParentMax=0;resizeLast=0;collapsible=1;marginBottom=0;whiteSpace=wrap;html=1;labelBackgroundColor=none;fillColor=#FAE5C7;strokeColor=#0F8B8D;fontColor=#143642;" vertex="1" parent="WIyWlLk6GJQsqaUBKTNV-1">
          <mxGeometry x="504" y="600" width="270" height="290" as="geometry" />
        </mxCell>
        <mxCell id="xFGzQamaevI_TETjZyQw-9" value="&lt;font style=&quot;font-size: 9px;&quot;&gt;- name&lt;br style=&quot;border-color: var(--border-color);&quot;&gt;- email&lt;br style=&quot;border-color: var(--border-color);&quot;&gt;- password&lt;br style=&quot;border-color: var(--border-color);&quot;&gt;- role&lt;br style=&quot;border-color: var(--border-color);&quot;&gt;- phoneNo&lt;/font&gt;&lt;div&gt;&lt;font style=&quot;font-size: 9px;&quot;&gt;- DOB&lt;br&gt;&lt;/font&gt;&lt;div&gt;&lt;div&gt;&lt;font style=&quot;font-size: 9px;&quot;&gt;- authToken&lt;br&gt;- nid&lt;br&gt;- profession&lt;/font&gt;&lt;/div&gt;&lt;/div&gt;&lt;/div&gt;" style="text;strokeColor=none;fillColor=none;align=left;verticalAlign=top;spacingLeft=4;spacingRight=4;overflow=hidden;rotatable=0;points=[[0,0.5],[1,0.5]];portConstraint=eastwest;whiteSpace=wrap;html=1;labelBackgroundColor=none;fontColor=#143642;" vertex="1" parent="xFGzQamaevI_TETjZyQw-8">
          <mxGeometry y="40" width="270" height="140" as="geometry" />
        </mxCell>
        <mxCell id="xFGzQamaevI_TETjZyQw-10" value="" style="line;strokeWidth=1;fillColor=none;align=left;verticalAlign=middle;spacingTop=-1;spacingLeft=3;spacingRight=3;rotatable=0;labelPosition=right;points=[];portConstraint=eastwest;strokeColor=#0F8B8D;labelBackgroundColor=none;fontColor=#143642;" vertex="1" parent="xFGzQamaevI_TETjZyQw-8">
          <mxGeometry y="180" width="270" as="geometry" />
        </mxCell>
        <mxCell id="xFGzQamaevI_TETjZyQw-11" value="" style="line;strokeWidth=1;fillColor=none;align=left;verticalAlign=middle;spacingTop=-1;spacingLeft=3;spacingRight=3;rotatable=0;labelPosition=right;points=[];portConstraint=eastwest;strokeColor=#0F8B8D;labelBackgroundColor=none;fontColor=#143642;" vertex="1" parent="xFGzQamaevI_TETjZyQw-8">
          <mxGeometry y="180" width="270" height="8" as="geometry" />
        </mxCell>
        <mxCell id="xFGzQamaevI_TETjZyQw-12" value="&lt;font face=&quot;Helvetica&quot; style=&quot;font-size: 9px;&quot;&gt;+ newUser(email, password, phoneNo, userData)&lt;/font&gt;&lt;div&gt;&lt;font style=&quot;font-size: 9px;&quot; face=&quot;Helvetica&quot;&gt;+ newUser(authToken)&lt;br style=&quot;border-color: var(--border-color);&quot;&gt;+ checkUser(email, password)&lt;br style=&quot;border-color: var(--border-color);&quot;&gt;+ changePass(password)&lt;br style=&quot;border-color: var(--border-color);&quot;&gt;+ update(userData&lt;span style=&quot;background-color: initial;&quot;&gt;)&lt;/span&gt;&lt;/font&gt;&lt;/div&gt;&lt;div&gt;&lt;font style=&quot;font-size: 9px;&quot; face=&quot;Helvetica&quot;&gt;+ getUserInfo()&lt;/font&gt;&lt;font size=&quot;1&quot;&gt;&lt;br&gt;&lt;/font&gt;&lt;/div&gt;" style="text;strokeColor=none;fillColor=none;align=left;verticalAlign=top;spacingLeft=4;spacingRight=4;overflow=hidden;rotatable=0;points=[[0,0.5],[1,0.5]];portConstraint=eastwest;whiteSpace=wrap;html=1;labelBackgroundColor=none;fontColor=#143642;" vertex="1" parent="xFGzQamaevI_TETjZyQw-8">
          <mxGeometry y="188" width="270" height="102" as="geometry" />
        </mxCell>
        <mxCell id="xFGzQamaevI_TETjZyQw-13" value="&amp;lt;&amp;lt;view&amp;gt;&amp;gt;&lt;br style=&quot;border-color: var(--border-color);&quot;&gt;RegisterUI" style="swimlane;fontStyle=1;align=center;verticalAlign=top;childLayout=stackLayout;horizontal=1;startSize=40;horizontalStack=0;resizeParent=1;resizeParentMax=0;resizeLast=0;collapsible=1;marginBottom=0;whiteSpace=wrap;html=1;labelBackgroundColor=none;fillColor=#FAE5C7;strokeColor=#0F8B8D;fontColor=#143642;" vertex="1" parent="WIyWlLk6GJQsqaUBKTNV-1">
          <mxGeometry x="820" y="347" width="260" height="120" as="geometry" />
        </mxCell>
        <mxCell id="xFGzQamaevI_TETjZyQw-14" value="&lt;br&gt;" style="text;strokeColor=none;fillColor=none;align=left;verticalAlign=top;spacingLeft=4;spacingRight=4;overflow=hidden;rotatable=0;points=[[0,0.5],[1,0.5]];portConstraint=eastwest;whiteSpace=wrap;html=1;labelBackgroundColor=none;fontColor=#143642;" vertex="1" parent="xFGzQamaevI_TETjZyQw-13">
          <mxGeometry y="40" width="260" height="24" as="geometry" />
        </mxCell>
        <mxCell id="xFGzQamaevI_TETjZyQw-15" value="" style="line;strokeWidth=1;fillColor=none;align=left;verticalAlign=middle;spacingTop=-1;spacingLeft=3;spacingRight=3;rotatable=0;labelPosition=right;points=[];portConstraint=eastwest;strokeColor=#0F8B8D;labelBackgroundColor=none;fontColor=#143642;" vertex="1" parent="xFGzQamaevI_TETjZyQw-13">
          <mxGeometry y="64" width="260" height="8" as="geometry" />
        </mxCell>
        <mxCell id="xFGzQamaevI_TETjZyQw-16" value="&lt;font style=&quot;font-size: 9px;&quot;&gt;+ inputUserInfo(email, password,&lt;span style=&quot;font-size: 10px;&quot;&gt;&amp;nbsp;phoneNo,&lt;/span&gt;&amp;nbsp;userData)&lt;br&gt;+ register()&lt;br&gt;&lt;/font&gt;" style="text;strokeColor=none;fillColor=none;align=left;verticalAlign=top;spacingLeft=4;spacingRight=4;overflow=hidden;rotatable=0;points=[[0,0.5],[1,0.5]];portConstraint=eastwest;whiteSpace=wrap;html=1;labelBackgroundColor=none;fontColor=#143642;" vertex="1" parent="xFGzQamaevI_TETjZyQw-13">
          <mxGeometry y="72" width="260" height="48" as="geometry" />
        </mxCell>
        <mxCell id="xFGzQamaevI_TETjZyQw-17" value="Login" style="text;html=1;strokeColor=none;fillColor=none;align=center;verticalAlign=middle;whiteSpace=wrap;rounded=0;" vertex="1" parent="WIyWlLk6GJQsqaUBKTNV-1">
          <mxGeometry x="70" y="70" width="100" height="50" as="geometry" />
        </mxCell>
        <mxCell id="xFGzQamaevI_TETjZyQw-18" style="edgeStyle=orthogonalEdgeStyle;rounded=0;orthogonalLoop=1;jettySize=auto;html=1;exitX=1;exitY=0.5;exitDx=0;exitDy=0;entryX=-0.005;entryY=0.491;entryDx=0;entryDy=0;entryPerimeter=0;" edge="1" parent="WIyWlLk6GJQsqaUBKTNV-1" source="xFGzQamaevI_TETjZyQw-7" target="xFGzQamaevI_TETjZyQw-3">
          <mxGeometry relative="1" as="geometry" />
        </mxCell>
        <mxCell id="xFGzQamaevI_TETjZyQw-19" style="edgeStyle=orthogonalEdgeStyle;rounded=0;orthogonalLoop=1;jettySize=auto;html=1;exitX=0;exitY=0.5;exitDx=0;exitDy=0;entryX=0.997;entryY=0.429;entryDx=0;entryDy=0;entryPerimeter=0;" edge="1" parent="WIyWlLk6GJQsqaUBKTNV-1" source="xFGzQamaevI_TETjZyQw-16" target="xFGzQamaevI_TETjZyQw-3">
          <mxGeometry relative="1" as="geometry" />
        </mxCell>
        <mxCell id="xFGzQamaevI_TETjZyQw-20" value="" style="endArrow=classic;html=1;rounded=0;entryX=0.5;entryY=0;entryDx=0;entryDy=0;exitX=0.486;exitY=1.008;exitDx=0;exitDy=0;exitPerimeter=0;" edge="1" parent="WIyWlLk6GJQsqaUBKTNV-1" target="xFGzQamaevI_TETjZyQw-8">
          <mxGeometry width="50" height="50" relative="1" as="geometry">
            <mxPoint x="639.6400000000001" y="500.79999999999995" as="sourcePoint" />
            <mxPoint x="643" y="600" as="targetPoint" />
          </mxGeometry>
        </mxCell>
        <mxCell id="xFGzQamaevI_TETjZyQw-21" value="&amp;lt;&amp;lt;model&amp;gt;&amp;gt;&lt;br&gt;Responder" style="swimlane;fontStyle=1;align=center;verticalAlign=top;childLayout=stackLayout;horizontal=1;startSize=40;horizontalStack=0;resizeParent=1;resizeParentMax=0;resizeLast=0;collapsible=1;marginBottom=0;whiteSpace=wrap;html=1;labelBackgroundColor=none;fillColor=#FAE5C7;strokeColor=#0F8B8D;fontColor=#143642;" vertex="1" parent="WIyWlLk6GJQsqaUBKTNV-1">
          <mxGeometry x="865" y="648" width="220" height="150" as="geometry" />
        </mxCell>
        <mxCell id="xFGzQamaevI_TETjZyQw-22" value="&lt;font style=&quot;font-size: 9px;&quot;&gt;- responderID&lt;/font&gt;&lt;div&gt;&lt;font style=&quot;font-size: 9px;&quot;&gt;- organization&lt;/font&gt;&lt;/div&gt;&lt;div&gt;&lt;font style=&quot;font-size: 9px;&quot;&gt;- licenseNumber&lt;/font&gt;&lt;/div&gt;" style="text;strokeColor=none;fillColor=none;align=left;verticalAlign=top;spacingLeft=4;spacingRight=4;overflow=hidden;rotatable=0;points=[[0,0.5],[1,0.5]];portConstraint=eastwest;whiteSpace=wrap;html=1;labelBackgroundColor=none;fontColor=#143642;" vertex="1" parent="xFGzQamaevI_TETjZyQw-21">
          <mxGeometry y="40" width="220" height="60" as="geometry" />
        </mxCell>
        <mxCell id="xFGzQamaevI_TETjZyQw-23" value="" style="line;strokeWidth=1;fillColor=none;align=left;verticalAlign=middle;spacingTop=-1;spacingLeft=3;spacingRight=3;rotatable=0;labelPosition=right;points=[];portConstraint=eastwest;strokeColor=#0F8B8D;labelBackgroundColor=none;fontColor=#143642;" vertex="1" parent="xFGzQamaevI_TETjZyQw-21">
          <mxGeometry y="100" width="220" as="geometry" />
        </mxCell>
        <mxCell id="xFGzQamaevI_TETjZyQw-24" value="" style="line;strokeWidth=1;fillColor=none;align=left;verticalAlign=middle;spacingTop=-1;spacingLeft=3;spacingRight=3;rotatable=0;labelPosition=right;points=[];portConstraint=eastwest;strokeColor=#0F8B8D;labelBackgroundColor=none;fontColor=#143642;" vertex="1" parent="xFGzQamaevI_TETjZyQw-21">
          <mxGeometry y="100" width="220" height="8" as="geometry" />
        </mxCell>
        <mxCell id="xFGzQamaevI_TETjZyQw-25" value="&lt;div&gt;&lt;font style=&quot;font-size: 9px;&quot;&gt;+ validateResponder(responderID, licenseNumber)&lt;/font&gt;&lt;/div&gt;" style="text;strokeColor=none;fillColor=none;align=left;verticalAlign=top;spacingLeft=4;spacingRight=4;overflow=hidden;rotatable=0;points=[[0,0.5],[1,0.5]];portConstraint=eastwest;whiteSpace=wrap;html=1;labelBackgroundColor=none;fontColor=#143642;" vertex="1" parent="xFGzQamaevI_TETjZyQw-21">
          <mxGeometry y="108" width="220" height="42" as="geometry" />
        </mxCell>
        <mxCell id="xFGzQamaevI_TETjZyQw-26" value="Extends" style="endArrow=block;endSize=16;endFill=0;html=1;rounded=0;entryX=0.994;entryY=0.716;entryDx=0;entryDy=0;entryPerimeter=0;exitX=-0.019;exitY=0.902;exitDx=0;exitDy=0;exitPerimeter=0;" edge="1" parent="WIyWlLk6GJQsqaUBKTNV-1" source="xFGzQamaevI_TETjZyQw-22" target="xFGzQamaevI_TETjZyQw-9">
          <mxGeometry width="160" relative="1" as="geometry">
            <mxPoint x="870" y="790" as="sourcePoint" />
            <mxPoint x="1030" y="790" as="targetPoint" />
          </mxGeometry>
        </mxCell>
      </root>
    </mxGraphModel>
  </diagram>
</mxfile>
